<?xml version="1.0" encoding="UTF-8" standalone="no"?>
<!-- Created with Inkscape (http://www.inkscape.org/) -->

<svg
   xmlns:dc="http://purl.org/dc/elements/1.1/"
   xmlns:cc="http://creativecommons.org/ns#"
   xmlns:rdf="http://www.w3.org/1999/02/22-rdf-syntax-ns#"
   xmlns:svg="http://www.w3.org/2000/svg"
   xmlns="http://www.w3.org/2000/svg"
   xmlns:sodipodi="http://sodipodi.sourceforge.net/DTD/sodipodi-0.dtd"
   xmlns:inkscape="http://www.inkscape.org/namespaces/inkscape"
   width="522.84497mm"
   height="191.95717mm"
   viewBox="0 0 1852.6003 680.16319"
   id="svg2"
   version="1.1"
   inkscape:version="0.91 r13725"
   sodipodi:docname="balloon.svg">
  <defs
     id="defs4" />
  <sodipodi:namedview
     id="base"
     pagecolor="#ffffff"
     bordercolor="#666666"
     borderopacity="1.0"
     inkscape:pageopacity="0.0"
     inkscape:pageshadow="2"
     inkscape:zoom="0.21050928"
     inkscape:cx="1143.8434"
     inkscape:cy="711.71459"
     inkscape:document-units="px"
     inkscape:current-layer="layer1"
     showgrid="false"
     fit-margin-top="0"
     fit-margin-left="0"
     fit-margin-right="0"
     fit-margin-bottom="0"
     inkscape:window-width="1920"
     inkscape:window-height="1016"
     inkscape:window-x="0"
     inkscape:window-y="27"
     inkscape:window-maximized="1" />
  <metadata
     id="metadata7">
    <rdf:RDF>
      <cc:Work
         rdf:about="">
        <dc:format>image/svg+xml</dc:format>
        <dc:type
           rdf:resource="http://purl.org/dc/dcmitype/StillImage" />
        <dc:title />
      </cc:Work>
    </rdf:RDF>
  </metadata>
  <g
     inkscape:label="Layer 1"
     inkscape:groupmode="layer"
     id="layer1"
     transform="translate(615.81106,-270.7025)">
    <g
       id="g3389"
       transform="translate(798.06458,-1178.0953)">
      <g
         transform="matrix(0.99973553,-0.0229971,0.0229971,0.99973553,-41.296991,-10.718121)"
         id="g3385">
        <path
           style="opacity:1;fill:#ffffff;fill-opacity:1;stroke:none;stroke-width:10;stroke-linecap:round;stroke-linejoin:round;stroke-miterlimit:4;stroke-dasharray:none;stroke-dashoffset:0;stroke-opacity:1"
           d="m -1222.916,1446.9863 c -27.1518,2.8841 -54.5084,11.6883 -76.1231,28.7735 -22.8899,18.4242 -38.6337,45.9205 -41.0406,75.3951 -5.8775,44.0213 -8.1998,88.3826 -11.9794,132.606 -4.7761,65.7267 -9.7159,131.6107 -8.5034,197.5438 0.9591,21.487 13.9499,39.9622 27.3242,55.8476 18.5787,21.1864 44.8217,35.9741 73.1491,38.2667 38.4002,5.1359 77.0994,7.4419 115.7109,10.2393 124.1673,7.2213 248.58806,8.0037 372.92084,9.7218 305.13903,3.2317 610.29932,2.2438 915.44965,2.6492 35.04752,28.8164 70.09505,57.6328 105.14258,86.4492 5.84147,2.2337 8.06306,-5.6804 7.13867,-10.0801 1.3332,-21.8595 3.44892,-43.804 4.93554,-65.7109 30.46983,-1.5762 64.05737,-0.1311 90.21094,-18.6387 26.91572,-18.0402 49.05807,-45.6684 53.9185,-78.4154 5.97079,-32.8236 6.40612,-66.3185 9.5742,-99.4658 5.16584,-73.0988 11.14722,-146.1961 13.52683,-219.4449 -1.00577,-39.0729 -22.96494,-76.747 -56.52343,-96.8145 -15.945,-11.569 -36.19498,-14.5062 -55.43164,-13.2422 -45.72714,1.027 -91.22376,5.6953 -136.95299,5.8118 -178.3488292,3.854 -356.75795,1.4149 -535.10602,-1.2087 -210.09268,-3.5804 -420.22734,-8.6012 -630.05232,-19.7007 -75.88515,-4.4936 -151.76025,-9.9754 -227.20315,-19.2207 -3.3117,-0.7319 -6.6666,-1.5524 -10.0859,-1.3614 z"
           id="path3374"
           inkscape:connector-curvature="0" />
        <path
           style="fill:#ffcc00"
           d="m 251.53554,2131.8073 c 8.5636,-7.7833 15.5687,-14.4478 15.5669,-14.8099 -0.014,-2.7707 5.1669,-70.9026 5.4569,-71.7635 0.2048,-0.6077 4.2962,-2.3284 9.0921,-3.8236 4.7958,-1.4953 12.8225,-4.8738 17.837,-7.5079 60.8422,-31.9592 63.1117,-33.2709 75.9646,-43.9055 23.8115,-19.7016 41.1596,-50.976 45.5737,-82.1579 0.5839,-4.125 6.0377,-75.675 12.1196,-159 10.2493,-140.4207 10.9779,-152.2679 9.9627,-162 -3.4492,-33.0655 -15.9802,-59.9298 -38.5018,-82.5415 -18.8079,-18.883 -40.3797,-30.736 -66.5015,-36.5404 -9.0361,-2.0079 -1037.01535,4.6396 -1377.28574,-20.3201 -172.3254,-12.6404 -185.7194,-13.4951 -195.5,-12.4753 -24.012,2.5038 -43.5547,9.4264 -62.5956,22.1735 -11.3603,7.6052 -18.0833,13.6735 -30.278,27.3294 -56.9715,63.798 -58.8974,66.1514 -66.52,81.2885 -4.755,9.4424 -9.1259,22.5751 -11.0602,33.2313 -1.135,6.2525 -2.868,45.7826 -6.5971,150.4802 -5.9896,168.1597 -6.0731,173.2178 -3.0935,187.2336 5.5055,25.8973 16.017,45.3252 34.5513,63.8594 18.7885,18.7886 40.372,30.2593 65.613,34.8707 6.4295,1.1747 54.6654,3.1269 199.4801,8.0736 105.05,3.5884 1213.80164,-0.2776 1215.04344,0.1179 1.2417,0.3955 31.9558,23.4442 68.2535,51.2192 36.2978,27.775 66.4128,50.6394 66.9222,50.8099 0.5094,0.1705 7.9328,-6.0583 16.4964,-13.8416 z m -53.0431,-92.5479 c -51.9103,-42.9463 -52.3347,-43.2695 -57.5912,-43.8506 -2.9125,-0.322 -1110.55625,0.463 -1212.58124,-6.9646 -102.025,-7.4275 -189.2115,-14.1883 -193.7476,-15.0239 -17.1916,-3.1669 -30.1646,-8.4713 -45.0198,-18.4078 -10.2526,-6.8579 -24.6874,-21.3806 -31.545,-31.7371 -12.5677,-18.9801 -19.6876,-42.1886 -19.6876,-64.1752 0,-13.6463 21.9346,-307.311 23.5003,-314.6271 11.0133,-51.4612 52.5612,-88.4944 104.8401,-93.4478 5.6022,-0.5308 13.8709,-2.9033 15.6727,-0.4671 1.1133,1.5052 157.3541,18.6 353.03962,26.0865 334.76235,12.8073 798.68953,18.0874 898.216402,18.0874 147.874998,0 296.906918,-12.2245 300.729218,-11.3955 40.6226,8.8109 72.8401,37.3778 86.7056,76.8812 4.165,11.8662 6.0818,23.5417 6.0818,37.0459 0,11.6006 -20.1425,292.7864 -22.0172,307.356 -5.0691,39.3961 -32.3906,75.5495 -69.031,91.346 -19.1919,8.2741 -35.973,10.8206 -60.5503,9.1882 -8.7458,-0.5808 -16.0109,-0.9675 -16.1445,-0.8592 -0.1336,0.1083 -1.3762,16.1375 -2.7614,35.6205 -2.9553,41.5681 -3.242,44.1985 -4.7187,43.2859 -0.602,-0.3721 -24.6277,-20.1459 -53.3902,-43.9417 z"
           id="path3347"
           inkscape:connector-curvature="0"
           sodipodi:nodetypes="sccccssssssssssssssssscssssssssssssssscssssssscs" />
      </g>
      <g
         transform="translate(0,-670.33206)"
         id="g3380">
        <g
           id="g3408">
          <path
             inkscape:connector-curvature="0"
             id="path3368"
             d="m -1068.6164,2508.3377 c -21.8438,-1.697 -43.6769,-9.8866 -69.4217,-26.04 -17.4802,-10.9678 -30.2947,-21.508 -49.7059,-40.8843 -14.2929,-14.267 -22.5227,-23.834 -32.5067,-37.788 -18.2448,-25.4995 -29.4227,-50.9864 -32.6129,-74.3607 -1.3271,-9.7237 -0.7428,-16.1176 1.9981,-21.8628 1.6322,-3.4214 2.7717,-4.677 19.8063,-21.8217 9.941,-10.0052 19.1012,-19.0157 20.356,-20.0232 3.0157,-2.4215 6.5472,-3.2703 9.8215,-2.3607 1.7114,0.4754 2.9959,1.3339 4.9578,3.3131 2.3601,2.381 4.2405,5.7011 17.2954,30.5362 l 14.6474,27.8648 0,3.6032 c 0,6.0675 -0.6888,7.2252 -9.8713,16.5931 -5.8358,5.9536 -8.1157,8.6043 -8.3609,9.7207 -1.1043,5.0282 8.283,22.5197 19.0099,35.421 5.1267,6.1659 21.8657,22.9115 27.9044,27.9154 5.1648,4.2798 13.1855,9.9446 18.5104,13.0734 7.4175,4.3584 14.6591,6.8075 17.2504,5.834 0.7565,-0.2842 5.1603,-4.2756 9.7862,-8.8697 10.0381,-9.9692 11.7494,-11.0171 18.0128,-11.0301 2.2336,0 4.5477,0.2783 5.5249,0.6754 2.6184,1.0643 51.8783,30.2233 54.1354,32.0451 1.1668,0.9418 2.5538,2.7348 3.3082,4.2769 1.0869,2.2214 1.2559,3.074 1.0346,5.218 -0.1455,1.4095 -0.6969,3.4011 -1.2255,4.4257 -0.5553,1.0766 -9.1402,9.9959 -20.339,21.1314 -17.6129,17.5133 -19.6737,19.4084 -22.623,20.804 -5.2543,2.4862 -9.5161,3.1474 -16.6928,2.5898 z"
             style="fill:#ffcc00;fill-opacity:1" />
          <g
             id="g3402">
            <g
               style="color:#000000;font-style:normal;font-variant:normal;font-weight:normal;font-stretch:normal;font-size:231.52359009px;line-height:125%;font-family:'Josefin Slab';-inkscape-font-specification:'Josefin Slab';text-indent:0;text-align:start;text-decoration:none;text-decoration-line:none;text-decoration-style:solid;text-decoration-color:#000000;letter-spacing:0px;word-spacing:0px;text-transform:none;direction:ltr;block-progression:tb;writing-mode:lr-tb;baseline-shift:baseline;text-anchor:start;white-space:normal;clip-rule:nonzero;display:inline;overflow:visible;visibility:visible;opacity:1;isolation:auto;mix-blend-mode:normal;color-interpolation:sRGB;color-interpolation-filters:linearRGB;solid-color:#000000;solid-opacity:1;fill:#000000;fill-opacity:1;fill-rule:nonzero;stroke:none;stroke-width:1px;stroke-linecap:butt;stroke-linejoin:miter;stroke-miterlimit:4;stroke-dasharray:none;stroke-dashoffset:0;stroke-opacity:1;color-rendering:auto;image-rendering:auto;shape-rendering:auto;text-rendering:auto;enable-background:accumulate"
               id="text3370">
              <path
                 d="m -950.28376,2461.8031 q 0,-17.3643 3.24133,-33.1079 3.24133,-15.7436 8.56637,-29.172 5.32504,-13.4283 12.03923,-24.31 6.94571,-11.1131 14.35446,-18.7534 1.85219,1.3892 3.47285,2.7783 1.85219,1.1576 3.70438,2.5468 -6.71418,7.6403 -13.19684,18.0588 -6.25114,10.4186 -11.34466,23.1524 -5.09352,12.7338 -8.10332,27.5513 -3.00981,14.8175 -3.00981,31.2557 0,16.4381 3.00981,31.2557 3.0098,14.8175 8.10332,27.5513 5.09352,12.7338 11.34466,23.1523 6.48266,10.4186 13.19684,18.0589 -1.85219,1.3891 -3.70438,2.5467 -1.62066,1.3892 -3.47285,2.7783 -7.40875,-7.6403 -14.35446,-18.7534 -6.71419,-10.8816 -12.03923,-24.31 -5.32504,-13.4284 -8.56637,-29.172 -3.24133,-15.7436 -3.24133,-33.1078 z"
                 style=""
                 id="path4209" />
              <path
                 d="m -875.90681,2520.147 18.52189,0 0,-131.7369 -21.99474,0 0,-9.4925 31.71873,0 0,141.2294 18.52189,0 0,9.261 -46.76777,0 0,-9.261 z"
                 style=""
                 id="path4211" />
              <path
                 d="m -814.40835,2520.147 18.52189,0 0,-131.7369 -21.99474,0 0,-9.4925 31.71873,0 0,141.2294 18.52189,0 0,9.261 -46.76777,0 0,-9.261 z"
                 style=""
                 id="path4213" />
              <path
                 d="m -696.64966,2462.2661 q 0,17.3643 -3.24133,33.1079 -3.24133,15.7436 -8.56637,29.172 -5.32504,13.4283 -12.27075,24.3099 -6.94571,11.1132 -14.12294,18.7535 -1.85219,-1.3892 -3.70438,-2.7783 -1.62066,-1.1576 -3.47285,-2.5468 6.71418,-7.6403 12.96532,-18.0588 6.48266,-10.4186 11.57618,-23.1524 5.09352,-12.7338 8.10332,-27.5513 3.00981,-14.8175 3.00981,-31.2557 0,-16.4382 -3.00981,-31.2557 -3.0098,-14.8175 -8.10332,-27.5513 -5.09352,-12.7338 -11.57618,-23.1523 -6.25114,-10.4186 -12.96532,-18.0589 1.85219,-1.3891 3.47285,-2.5467 1.85219,-1.3892 3.70438,-2.7783 7.17723,7.6403 14.12294,18.7534 6.94571,10.8816 12.27075,24.31 5.32504,13.4283 8.56637,29.1719 3.24133,15.7436 3.24133,33.1079 z"
                 style=""
                 id="path4215" />
              <path
                 d="m -563.02075,2449.0693 42.36881,-60.6592 -48.1569,0 0,13.8914 -9.26095,0 0,-23.3839 74.78212,0 -40.97967,56.9548 q 9.26094,0.6946 17.36427,4.6305 8.33484,3.7044 14.35446,9.9555 6.25114,6.2512 9.72399,14.586 3.47285,8.1033 3.47285,17.8273 0,9.9555 -3.9359,18.7534 -3.70438,8.7979 -10.41856,15.5121 -6.48266,6.4827 -15.51208,10.4186 -8.7979,3.7043 -18.75341,3.7043 -10.65009,0 -19.91103,-4.1674 -9.02942,-4.3989 -15.7436,-11.5762 l 7.17723,-7.1772 q 5.09352,6.0196 12.27075,9.724 7.17723,3.7044 15.7436,3.7044 8.10333,0 15.28056,-3.0098 7.17723,-3.2414 12.50227,-8.5664 5.32505,-5.325 8.33485,-12.2707 3.24133,-7.1773 3.24133,-15.0491 0,-7.8718 -3.24133,-14.8175 -3.0098,-7.1772 -8.33485,-12.5023 -5.32504,-5.325 -12.50227,-8.3348 -7.17723,-3.0098 -15.28056,-3.0098 -3.9359,0 -7.64028,1.3891 -3.70437,1.1576 -6.9457,3.4729 z"
                 style=""
                 id="path4217" />
              <path
                 d="m -471.19273,2520.147 18.52189,0 0,-131.7369 -21.99474,0 0,-9.4925 31.71873,0 0,141.2294 18.52189,0 0,9.261 -46.76777,0 0,-9.261 z"
                 style=""
                 id="path4219" />
              <path
                 d="m -382.14298,2449.0693 42.36882,-60.6592 -48.15691,0 0,13.8914 -9.26094,0 0,-23.3839 74.78212,0 -40.97968,56.9548 q 9.26095,0.6946 17.36427,4.6305 8.33485,3.7044 14.35447,9.9555 6.25113,6.2512 9.72399,14.586 3.47285,8.1033 3.47285,17.8273 0,9.9555 -3.9359,18.7534 -3.70438,8.7979 -10.41856,15.5121 -6.48266,6.4827 -15.51208,10.4186 -8.7979,3.7043 -18.75341,3.7043 -10.65009,0 -19.91103,-4.1674 -9.02942,-4.3989 -15.74361,-11.5762 l 7.17723,-7.1772 q 5.09352,6.0196 12.27075,9.724 7.17724,3.7044 15.74361,3.7044 8.10332,0 15.28056,-3.0098 7.17723,-3.2414 12.50227,-8.5664 5.32504,-5.325 8.33485,-12.2707 3.24133,-7.1773 3.24133,-15.0491 0,-7.8718 -3.24133,-14.8175 -3.00981,-7.1772 -8.33485,-12.5023 -5.32504,-5.325 -12.50227,-8.3348 -7.17724,-3.0098 -15.28056,-3.0098 -3.9359,0 -7.64028,1.3891 -3.70438,1.1576 -6.94571,3.4729 z"
                 style=""
                 id="path4221" />
              <path
                 d="m -265.77339,2519.9155 63.20594,0 0,-24.31 9.26094,0 0,33.8025 -96.08229,0 q 14.58599,-14.3545 28.24588,-28.0144 13.89142,-13.8914 24.5415,-26.8567 10.65009,-13.1969 17.13275,-25.2361 6.48266,-12.2708 6.48266,-23.1524 0,-11.3446 -3.47285,-18.7534 -3.24134,-7.6403 -8.33485,-12.2707 -4.862,-4.6305 -10.88161,-6.4827 -5.78809,-2.0837 -10.88161,-2.0837 -10.41856,0 -17.13275,3.7044 -6.48266,3.7044 -10.41856,9.0294 -3.70438,5.325 -5.32504,11.5762 -1.38914,6.2511 -1.38914,11.3446 0,8.1034 2.31523,14.3545 2.31524,6.2511 6.71419,11.1131 l -5.78809,5.7881 q -6.01962,-5.325 -9.49247,-13.6599 -3.47285,-8.5663 -3.47285,-17.5958 0,-9.2609 2.77828,-17.3642 3.00981,-8.3349 8.56637,-14.3545 5.55657,-6.2511 13.65989,-9.724 8.33485,-3.7044 18.98494,-3.7044 9.72399,0 17.59579,3.7044 8.10333,3.4729 13.65989,9.724 5.78809,6.2511 8.7979,14.8175 3.24133,8.3349 3.24133,18.0589 0,12.5022 -5.78809,25.0045 -5.55657,12.2708 -14.58599,24.31 -9.02942,12.0392 -20.14255,23.8469 -11.11313,11.8077 -21.99474,23.3839 z"
                 style=""
                 id="path4223" />
              <path
                 d="m -48.919036,2520.147 17.595793,0 0,-33.1079 -75.013647,0 84.737638,-109.9737 0,100.4813 22.45778777,0 0,9.4924 -22.45778777,0 0,33.1079 19.2164575,0 0,9.261 -46.5362415,0 0,-9.261 z m 17.595793,-114.6042 -55.334138,72.0039 55.334138,0 0,-72.0039 z"
                 style=""
                 id="path4225" />
              <path
                 d="m 40.362292,2519.9155 63.205938,0 0,-24.31 9.26095,0 0,33.8025 -96.082294,0 q 14.585986,-14.3545 28.245878,-28.0144 13.891415,-13.8914 24.5415,-26.8567 10.650085,-13.1969 17.132746,-25.2361 6.48266,-12.2708 6.48266,-23.1524 0,-11.3446 -3.472854,-18.7534 -3.24133,-7.6403 -8.334849,-12.2707 -4.861995,-4.6305 -10.881609,-6.4827 -5.788089,-2.0837 -10.881608,-2.0837 -10.418562,0 -17.132746,3.7044 -6.48266,3.7044 -10.418562,9.0294 -3.704377,5.325 -5.325042,11.5762 -1.389142,6.2511 -1.389142,11.3446 0,8.1034 2.315236,14.3545 2.315236,6.2511 6.714184,11.1131 l -5.788089,5.7881 q -6.019614,-5.325 -9.492468,-13.6599 -3.472853,-8.5663 -3.472853,-17.5958 0,-9.2609 2.778283,-17.3642 3.009806,-8.3349 8.566372,-14.3545 5.556567,-6.2511 13.659892,-9.724 8.33485,-3.7044 18.984935,-3.7044 9.72399,0 17.595793,3.7044 8.103325,3.4729 13.659891,9.724 5.78809,6.2511 8.797897,14.8175 3.241329,8.3349 3.241329,18.0589 0,12.5022 -5.788089,25.0045 -5.556566,12.2708 -14.585986,24.31 -9.02942,12.0392 -20.142552,23.8469 -11.113133,11.8077 -21.994741,23.3839 z"
                 style=""
                 id="path4227" />
              <path
                 d="m 132.9392,2520.147 18.52189,0 0,-131.7369 -21.99474,0 0,-9.4925 31.71873,0 0,141.2294 18.52188,0 0,9.261 -46.76776,0 0,-9.261 z"
                 style=""
                 id="path4229" />
              <path
                 d="m 221.98892,2449.0693 42.36882,-60.6592 -48.15691,0 0,13.8914 -9.26094,0 0,-23.3839 74.78212,0 -40.97968,56.9548 q 9.26094,0.6946 17.36427,4.6305 8.33485,3.7044 14.35446,9.9555 6.25114,6.2512 9.72399,14.586 3.47286,8.1033 3.47286,17.8273 0,9.9555 -3.9359,18.7534 -3.70438,8.7979 -10.41857,15.5121 -6.48266,6.4827 -15.51208,10.4186 -8.79789,3.7043 -18.75341,3.7043 -10.65008,0 -19.91103,-4.1674 -9.02942,-4.3989 -15.7436,-11.5762 l 7.17723,-7.1772 q 5.09352,6.0196 12.27075,9.724 7.17723,3.7044 15.74361,3.7044 8.10332,0 15.28055,-3.0098 7.17723,-3.2414 12.50228,-8.5664 5.32504,-5.325 8.33485,-12.2707 3.24133,-7.1773 3.24133,-15.0491 0,-7.8718 -3.24133,-14.8175 -3.00981,-7.1772 -8.33485,-12.5023 -5.32505,-5.325 -12.50228,-8.3348 -7.17723,-3.0098 -15.28055,-3.0098 -3.93591,0 -7.64028,1.3891 -3.70438,1.1576 -6.94571,3.4729 z"
                 style=""
                 id="path4231" />
            </g>
            <g
               style="color:#000000;font-style:normal;font-variant:normal;font-weight:normal;font-stretch:normal;font-size:150.0526123px;line-height:125%;font-family:'Josefin Slab';-inkscape-font-specification:'Josefin Slab';text-indent:0;text-align:start;text-decoration:none;text-decoration-line:none;text-decoration-style:solid;text-decoration-color:#000000;letter-spacing:0px;word-spacing:0px;text-transform:none;direction:ltr;block-progression:tb;writing-mode:lr-tb;baseline-shift:baseline;text-anchor:start;white-space:normal;clip-rule:nonzero;display:inline;overflow:visible;visibility:visible;opacity:1;isolation:auto;mix-blend-mode:normal;color-interpolation:sRGB;color-interpolation-filters:linearRGB;solid-color:#000000;solid-opacity:1;fill:#000000;fill-opacity:1;fill-rule:nonzero;stroke:none;stroke-width:1px;stroke-linecap:butt;stroke-linejoin:miter;stroke-miterlimit:4;stroke-dasharray:none;stroke-dashoffset:0;stroke-opacity:1;color-rendering:auto;image-rendering:auto;shape-rendering:auto;text-rendering:auto;enable-background:accumulate"
               id="text3398">
              <path
                 d="m -928.80052,2304.4383 8.40294,0 11.404,-81.3285 -8.40294,0 1.65058,-11.8541 73.07562,0 -3.30116,23.1081 -11.85416,0 1.65058,-11.254 -40.36415,0 -4.80168,34.3621 46.36625,0 -1.80063,11.8541 -46.36626,0 -4.80168,35.1123 15.45542,0 -1.65058,11.8542 -36.31273,0 1.65058,-11.8542 z"
                 style="font-style:italic;font-variant:normal;font-weight:bold;font-stretch:normal;font-family:'Josefin Slab';-inkscape-font-specification:'Josefin Slab Bold Italic';letter-spacing:-12.96218777px;fill:#ffcc00"
                 id="path4234" />
              <path
                 d="m -855.83649,2288.2326 q 0.90032,-5.852 3.90137,-11.2539 3.15111,-5.4019 7.80274,-9.4533 4.65163,-4.0514 10.50368,-6.4523 5.85205,-2.4008 12.15426,-2.4008 4.05142,0 7.20253,1.2004 3.30116,1.2004 5.702,2.7009 2.40084,1.3505 3.60126,2.701 1.35047,1.3505 1.35047,1.8006 0.30011,-1.6506 0.75027,-3.4512 0.45015,-1.8006 0.75026,-3.6012 l 10.35363,0 -6.15216,44.4155 11.404,0 -1.65058,11.8542 -22.35784,0 0.45016,-3.0011 q 0.15005,-0.7502 0.15005,-1.5005 0,-0.7503 0.15006,-1.5005 -0.30011,0.4501 -1.80064,1.6506 -1.50052,1.2004 -4.05142,2.5508 -2.55089,1.2005 -6.15215,2.1008 -3.60127,1.0504 -7.95279,1.0504 -6.30221,0 -11.55405,-2.2508 -5.25184,-2.4009 -8.70305,-6.4523 -3.45121,-4.0514 -5.10179,-9.3033 -1.65058,-5.4019 -0.75027,-11.404 z m 12.60442,-0.15 q -1.05036,7.3526 3.15111,12.4544 4.20147,4.9517 12.00421,4.9517 3.90137,0 7.20252,-1.3505 3.45121,-1.3505 6.15216,-3.6012 2.70095,-2.4009 4.35153,-5.552 1.80063,-3.3011 2.25079,-6.9024 1.05036,-7.5026 -3.15111,-12.3043 -4.20147,-4.9518 -12.00421,-4.9518 -3.90137,0 -7.35258,1.3505 -3.30115,1.2004 -6.0021,3.6013 -2.70095,2.2508 -4.50158,5.4019 -1.65058,3.1511 -2.10074,6.9024 z"
                 style="font-style:italic;font-variant:normal;font-weight:bold;font-stretch:normal;font-family:'Josefin Slab';-inkscape-font-specification:'Josefin Slab Bold Italic';letter-spacing:-12.96218777px;fill:#ffcc00"
                 id="path4236" />
              <path
                 d="m -789.1395,2304.4383 11.404,0 12.45437,-88.8311 -9.90347,0 1.65058,-11.8542 22.35784,0 -14.10495,100.6853 9.45331,0 -1.65057,11.8542 -33.31168,0 1.65057,-11.8542 z"
                 style="font-style:italic;font-variant:normal;font-weight:bold;font-stretch:normal;font-family:'Josefin Slab';-inkscape-font-specification:'Josefin Slab Bold Italic';letter-spacing:-12.96218777px;fill:#ffcc00"
                 id="path4238" />
              <path
                 d="m -723.32875,2270.8265 q -7.65269,0 -13.05458,4.6517 -5.4019,4.5015 -6.75237,11.404 7.50263,-2.5509 14.85521,-5.1018 7.35258,-2.701 14.70516,-5.2519 -1.65058,-2.5509 -4.20148,-4.0514 -2.40084,-1.6506 -5.55194,-1.6506 z m 24.60862,12.7545 q -10.65373,3.7513 -21.30747,7.5026 -10.65373,3.7514 -21.45752,7.5027 1.80063,3.1511 5.25184,5.1018 3.45121,1.8006 8.10284,1.8006 3.45121,0 6.45226,-1.2004 3.15111,-1.3505 5.55195,-3.6013 1.65058,2.2508 3.15111,4.5016 1.65057,2.2508 3.30115,4.5016 -4.35152,3.7513 -9.45331,5.852 -4.95174,2.1008 -10.65374,2.1008 -6.30221,0 -11.404,-2.2508 -5.10178,-2.4009 -8.70305,-6.4523 -3.45121,-4.0514 -5.10179,-9.3033 -1.65057,-5.4019 -0.75026,-11.554 0.90032,-6.0021 3.90137,-11.404 3.1511,-5.4019 7.80273,-9.3033 4.65164,-4.0514 10.35364,-6.3022 5.85205,-2.4008 12.15426,-2.4008 4.65163,0 8.553,1.9507 4.05142,1.8006 6.90242,5.1018 3.00105,3.3011 4.80168,7.9527 1.95068,4.5016 2.55089,9.9035 z"
                 style="font-style:italic;font-variant:normal;font-weight:bold;font-stretch:normal;font-family:'Josefin Slab';-inkscape-font-specification:'Josefin Slab Bold Italic';letter-spacing:-12.96218777px;fill:#ffcc00"
                 id="path4240" />
              <path
                 d="m -623.50903,2311.1907 q -4.35152,3.001 -9.30326,4.8017 -4.95174,1.6506 -10.35363,1.6506 -6.30221,0 -11.404,-2.2508 -5.10179,-2.4009 -8.70305,-6.4523 -3.45121,-4.0514 -5.10179,-9.3033 -1.65058,-5.4019 -0.75026,-11.554 0.90031,-6.0021 3.90137,-11.404 3.1511,-5.4019 7.80273,-9.3033 4.65163,-4.0514 10.35363,-6.3022 5.85205,-2.4008 12.15426,-2.4008 5.55195,0 10.05353,1.8006 4.65163,1.6506 8.10284,4.6516 l -2.55089,17.4061 -11.1039,0 1.50053,-10.0535 q -3.60126,-1.6506 -7.80274,-1.6506 -3.90137,0 -7.35258,1.3505 -3.30115,1.2004 -6.0021,3.6013 -2.70095,2.2508 -4.50158,5.4019 -1.65058,3.1511 -2.10073,6.9024 -1.05037,7.3526 3.1511,12.4544 4.20147,4.9517 12.00421,4.9517 6.60231,0 11.7041,-3.7513 l 6.30221,9.4533 z"
                 style="font-style:italic;font-variant:normal;font-weight:bold;font-stretch:normal;font-family:'Josefin Slab';-inkscape-font-specification:'Josefin Slab Bold Italic';letter-spacing:-12.96218777px;fill:#ffcc00"
                 id="path4242" />
              <path
                 d="m -622.59371,2288.0826 q 0.90031,-6.0021 3.90137,-11.404 3.1511,-5.4019 7.80273,-9.3033 4.65163,-4.0514 10.35363,-6.3022 5.85206,-2.4008 12.15426,-2.4008 6.30221,0 11.404,2.4008 5.25184,2.2508 8.70305,6.3022 3.60127,3.9014 5.10179,9.3033 1.65058,5.4019 0.75027,11.404 -0.90032,6.1521 -4.05142,11.554 -3.00106,5.2519 -7.65269,9.3033 -4.50158,4.0514 -10.35363,6.4523 -5.85205,2.2508 -12.15426,2.2508 -6.30221,0 -11.404,-2.2508 -5.10179,-2.4009 -8.70305,-6.4523 -3.45121,-4.0514 -5.10179,-9.3033 -1.65058,-5.4019 -0.75026,-11.554 z m 12.45437,0.15 q -0.45016,3.6013 0.45015,6.7524 0.90032,3.1511 2.851,5.552 2.10074,2.2507 4.95174,3.6012 3.00105,1.3505 6.60231,1.3505 3.60127,0 6.90242,-1.3505 3.45121,-1.3505 6.15216,-3.6012 2.70095,-2.4009 4.50158,-5.552 1.80063,-3.1511 2.25079,-6.7524 0.45016,-3.6012 -0.45016,-6.7523 -0.90031,-3.1511 -3.00105,-5.552 -1.95068,-2.4008 -4.95174,-3.7513 -3.00105,-1.3505 -6.60231,-1.3505 -3.60126,0 -6.90242,1.3505 -3.30116,1.3505 -6.00211,3.7513 -2.70094,2.4009 -4.50157,5.552 -1.80064,3.1511 -2.25079,6.7523 z"
                 style="font-style:italic;font-variant:normal;font-weight:bold;font-stretch:normal;font-family:'Josefin Slab';-inkscape-font-specification:'Josefin Slab Bold Italic';letter-spacing:-12.96218777px;fill:#ffcc00"
                 id="path4244" />
              <path
                 d="m -480.59608,2304.4383 11.404,0 3.1511,-23.2581 q 0.30011,-4.0515 -1.95068,-6.9025 -2.10074,-3.001 -7.80274,-3.3011 -3.90137,0 -7.65268,1.3505 -3.75132,1.3504 -6.75237,3.7513 -3.00105,2.4008 -5.10179,5.702 -2.10073,3.3011 -2.70095,7.2025 l -2.10073,15.4554 9.45331,0 -1.65058,11.8542 -33.31168,0 1.65058,-11.8542 11.404,0 3.15111,-23.2581 q 0.3001,-4.0515 -1.95069,-6.9025 -2.10073,-3.001 -7.80273,-3.3011 -3.90137,0 -7.65269,1.3505 -3.75131,1.3504 -6.75236,3.7513 -3.00106,2.4008 -5.10179,5.702 -2.10074,3.3011 -2.70095,7.2025 l -2.10074,15.4554 9.45332,0 -1.65058,11.8542 -33.31168,0 1.65058,-11.8542 11.404,0 4.50157,-32.5614 -9.90347,0 1.65058,-11.8541 20.85731,0 -0.15005,1.3504 q -0.3001,3.6013 -0.45016,6.6023 0,2.851 -0.3001,6.4523 4.20147,-7.2025 11.10389,-11.2539 6.90242,-4.2015 15.45542,-4.5016 8.25289,0 12.75447,4.2015 4.50158,4.0514 4.35153,10.8037 4.35152,-6.9024 11.10389,-10.8037 6.90242,-3.9014 15.15532,-4.2015 8.8531,0 13.35468,4.6516 4.50158,4.6516 3.75131,12.1543 l -4.05142,28.9601 9.45332,0 -1.65058,11.8542 -33.31168,0 1.65058,-11.8542 z"
                 style="font-style:italic;font-variant:normal;font-weight:bold;font-stretch:normal;font-family:'Josefin Slab';-inkscape-font-specification:'Josefin Slab Bold Italic';letter-spacing:-12.96218777px;fill:#ffcc00"
                 id="path4246" />
              <path
                 d="m -411.39882,2260.0228 22.35783,0 -4.80168,35.1123 q -0.3001,4.0514 1.80063,7.0524 2.25079,2.851 7.95279,3.1511 3.90137,0 7.65268,-1.3504 3.75132,-1.3505 6.75237,-3.7513 3.00105,-2.4009 5.10179,-5.702 2.10074,-3.3012 2.70095,-7.2026 l 2.10073,-15.4554 -9.90347,0 1.65058,-11.8541 22.35784,0 -6.30221,45.766 9.30326,0 -1.50052,10.5037 -21.75763,0 1.05037,-7.6527 1.35047,-6.7524 q -4.05142,7.2026 -11.25395,11.5541 -7.20252,4.2015 -15.30536,4.2015 -8.85311,0 -13.35469,-4.6517 -4.50157,-4.6516 -3.75131,-12.1542 l 4.05142,-28.9602 -9.90347,0 1.65058,-11.8541 z"
                 style="font-style:italic;font-variant:normal;font-weight:bold;font-stretch:normal;font-family:'Josefin Slab';-inkscape-font-specification:'Josefin Slab Bold Italic';letter-spacing:-12.96218777px;fill:#ffcc00"
                 id="path4248" />
              <path
                 d="m -258.35594,2304.4383 11.404,0 3.1511,-23.2581 q 0.30011,-4.0515 -1.95068,-6.9025 -2.10074,-3.001 -7.80274,-3.3011 -3.90136,0 -7.65268,1.3505 -3.75131,1.3504 -6.75237,3.7513 -3.00105,2.4008 -5.10179,5.702 -2.10073,3.3011 -2.70094,7.2025 l -2.10074,15.4554 9.45332,0 -1.65058,11.8542 -33.31168,0 1.65058,-11.8542 11.40399,0 3.15111,-23.2581 q 0.3001,-4.0515 -1.95068,-6.9025 -2.10074,-3.001 -7.80274,-3.3011 -3.90137,0 -7.65268,1.3505 -3.75132,1.3504 -6.75237,3.7513 -3.00105,2.4008 -5.10179,5.702 -2.10074,3.3011 -2.70095,7.2025 l -2.10073,15.4554 9.45331,0 -1.65058,11.8542 -33.31168,0 1.65058,-11.8542 11.404,0 4.50158,-32.5614 -9.90347,0 1.65057,-11.8541 20.85732,0 -0.15006,1.3504 q -0.3001,3.6013 -0.45015,6.6023 0,2.851 -0.30011,6.4523 4.20147,-7.2025 11.10389,-11.2539 6.90242,-4.2015 15.45542,-4.5016 8.2529,0 12.75448,4.2015 4.50157,4.0514 4.35152,10.8037 4.35153,-6.9024 11.10389,-10.8037 6.90242,-3.9014 15.15532,-4.2015 8.8531,0 13.35468,4.6516 4.50158,4.6516 3.75132,12.1543 l -4.05142,28.9601 9.45331,0 -1.65058,11.8542 -33.31168,0 1.65058,-11.8542 z"
                 style="font-style:italic;font-variant:normal;font-weight:bold;font-stretch:normal;font-family:'Josefin Slab';-inkscape-font-specification:'Josefin Slab Bold Italic';letter-spacing:-12.96218777px;fill:#ffcc00"
                 id="path4250" />
              <path
                 d="m -193.06002,2288.2326 q 0.90032,-5.852 3.90137,-11.2539 3.1511,-5.4019 7.80273,-9.4533 4.65164,-4.0514 10.50369,-6.4523 5.85205,-2.4008 12.15426,-2.4008 4.05142,0 7.20252,1.2004 3.30116,1.2004 5.702,2.7009 2.40085,1.3505 3.60127,2.701 1.35047,1.3505 1.35047,1.8006 0.30011,-1.6506 0.75026,-3.4512 0.45016,-1.8006 0.75027,-3.6012 l 10.35363,0 -6.15216,44.4155 11.404,0 -1.65058,11.8542 -22.35784,0 0.45016,-3.0011 q 0.15005,-0.7502 0.15005,-1.5005 0,-0.7503 0.15005,-1.5005 -0.3001,0.4501 -1.80063,1.6506 -1.50052,1.2004 -4.05142,2.5508 -2.55089,1.2005 -6.15216,2.1008 -3.60126,1.0504 -7.95278,1.0504 -6.30221,0 -11.55406,-2.2508 -5.25184,-2.4009 -8.70305,-6.4523 -3.45121,-4.0514 -5.10179,-9.3033 -1.65057,-5.4019 -0.75026,-11.404 z m 12.60442,-0.15 q -1.05037,7.3526 3.15111,12.4544 4.20147,4.9517 12.0042,4.9517 3.90137,0 7.20253,-1.3505 3.45121,-1.3505 6.15216,-3.6012 2.70094,-2.4009 4.35152,-5.552 1.80063,-3.3011 2.25079,-6.9024 1.05037,-7.5026 -3.1511,-12.3043 -4.20148,-4.9518 -12.00421,-4.9518 -3.90137,0 -7.35258,1.3505 -3.30116,1.2004 -6.0021,3.6013 -2.70095,2.2508 -4.50158,5.4019 -1.65058,3.1511 -2.10074,6.9024 z"
                 style="font-style:italic;font-variant:normal;font-weight:bold;font-stretch:normal;font-family:'Josefin Slab';-inkscape-font-specification:'Josefin Slab Bold Italic';letter-spacing:-12.96218777px;fill:#ffcc00"
                 id="path4252" />
              <path
                 d="m -102.50466,2223.4099 12.45437,0 -5.101788,36.6129 14.705156,0 -1.650579,12.1542 -14.705156,0 -4.501583,32.2613 11.25395,0 -1.650578,11.8542 -23.708312,0 6.15216,-44.1155 -12.60442,0 1.65058,-12.1542 12.60441,0 5.10179,-36.6129 z"
                 style="font-style:italic;font-variant:normal;font-weight:bold;font-stretch:normal;font-family:'Josefin Slab';-inkscape-font-specification:'Josefin Slab Bold Italic';letter-spacing:-12.96218777px;fill:#ffcc00"
                 id="path4254" />
              <path
                 d="m -54.10471,2270.8265 q -7.652683,0 -13.054577,4.6517 -5.401894,4.5015 -6.752368,11.404 7.502631,-2.5509 14.855209,-5.1018 7.352578,-2.701 14.705156,-5.2519 -1.650579,-2.5509 -4.201473,-4.0514 -2.400842,-1.6506 -5.551947,-1.6506 z m 24.608629,12.7545 q -10.653736,3.7513 -21.307471,7.5026 -10.653736,3.7514 -21.457524,7.5027 1.800632,3.1511 5.251842,5.1018 3.45121,1.8006 8.102841,1.8006 3.45121,0 6.452262,-1.2004 3.151105,-1.3505 5.551947,-3.6013 1.650578,2.2508 3.151105,4.5016 1.650578,2.2508 3.301157,4.5016 -4.351526,3.7513 -9.453315,5.852 -4.951736,2.1008 -10.653735,2.1008 -6.30221,0 -11.403999,-2.2508 -5.101788,-2.4009 -8.703051,-6.4523 -3.45121,-4.0514 -5.101789,-9.3033 -1.650579,-5.4019 -0.750263,-11.554 0.900316,-6.0021 3.901368,-11.404 3.151105,-5.4019 7.802736,-9.3033 4.651631,-4.0514 10.35363,-6.3022 5.852052,-2.4008 12.154262,-2.4008 4.651631,0 8.552999,1.9507 4.05142,1.8006 6.90242,5.1018 3.001052,3.3011 4.801683,7.9527 1.950684,4.5016 2.550895,9.9035 z"
                 style="font-style:italic;font-variant:normal;font-weight:bold;font-stretch:normal;font-family:'Josefin Slab';-inkscape-font-specification:'Josefin Slab Bold Italic';letter-spacing:-12.96218777px;fill:#ffcc00"
                 id="path4256" />
              <path
                 d="m 8.7424504,2304.4383 11.5540516,0 3.151104,-23.2581 q 0.300106,-4.0515 -1.950684,-6.9025 -2.100736,-3.001 -7.802735,-3.3011 -3.9013683,0 -7.6526836,1.3505 -3.7513153,1.3504 -6.75236754,3.7513 -3.00105226,2.4008 -5.10178886,5.702 -2.1007365,3.3011 -2.700947,7.2025 l -2.100737,15.4554 9.453315,0 -1.6505787,11.8542 -33.3116803,0 1.650579,-11.8542 11.403999,0 4.501578,-32.5614 -9.903472,0 1.650578,-11.8541 20.8573134,0 -0.1500526,1.3504 q -0.3001052,3.6013 -0.4501578,6.6023 0,2.851 -0.3001052,6.4523 4.0514205,-7.2025 11.2539459,-11.404 7.2025253,-4.3515 15.3053663,-4.3515 8.853104,0 13.354683,4.6516 4.501578,4.6516 3.751315,12.1543 l -4.051421,28.9601 9.303262,0 -1.650578,11.8542 -33.3116803,0 1.6505787,-11.8542 z"
                 style="font-style:italic;font-variant:normal;font-weight:bold;font-stretch:normal;font-family:'Josefin Slab';-inkscape-font-specification:'Josefin Slab Bold Italic';letter-spacing:-12.96218777px;fill:#ffcc00"
                 id="path4258" />
              <path
                 d="m 87.774265,2313.2914 q 0.150052,-0.7502 0.150052,-1.5005 0,-0.7503 0.150053,-1.5005 -0.300105,0.4501 -1.800631,1.6506 -1.500526,1.2004 -4.051421,2.5508 -2.550894,1.2005 -6.152157,2.1008 -3.601263,1.0504 -7.952788,1.0504 -6.30221,0 -11.554052,-2.2508 -5.251841,-2.4009 -8.703051,-6.4523 -3.45121,-4.0514 -5.101789,-9.4533 -1.650579,-5.4019 -0.750263,-11.404 0.900316,-6.0021 3.901368,-11.254 3.151105,-5.4019 7.802736,-9.4533 4.651631,-4.0514 10.503683,-6.3022 5.852052,-2.4008 12.154261,-2.4008 3.751316,0 6.90242,1.0503 3.301158,1.0504 5.702,2.4009 2.400841,1.3505 3.751315,2.7009 1.350473,1.3505 1.500526,1.8007 -0.150053,-1.2005 -0.450158,-2.2508 -0.150052,-1.2004 -0.300105,-2.4009 l 6.452262,-46.3662 -9.903472,0 1.650579,-11.8542 22.357837,0 -14.104944,100.6853 11.403994,0 -1.65057,11.8542 -22.357843,0 0.450158,-3.0011 z m -33.161628,-25.2088 q -1.050368,7.3526 3.151105,12.4544 4.201473,4.9517 12.004209,4.9517 3.901368,0 7.202526,-1.3505 3.45121,-1.3505 6.152157,-3.6012 2.700947,-2.4009 4.351526,-5.552 1.800631,-3.3011 2.250789,-6.9024 1.050368,-7.5026 -3.151105,-12.3043 -4.201473,-4.9518 -12.004209,-4.9518 -3.901368,0 -7.352578,1.3505 -3.301158,1.2004 -6.002105,3.6013 -2.700947,2.2508 -4.501578,5.4019 -1.650579,3.1511 -2.100737,6.9024 z"
                 style="font-style:italic;font-variant:normal;font-weight:bold;font-stretch:normal;font-family:'Josefin Slab';-inkscape-font-specification:'Josefin Slab Bold Italic';letter-spacing:-12.96218777px;fill:#ffcc00"
                 id="path4260" />
              <path
                 d="m 143.51742,2270.8265 q -7.65268,0 -13.05458,4.6517 -5.40189,4.5015 -6.75236,11.404 7.50263,-2.5509 14.85521,-5.1018 7.35257,-2.701 14.70515,-5.2519 -1.65058,-2.5509 -4.20147,-4.0514 -2.40084,-1.6506 -5.55195,-1.6506 z m 24.60863,12.7545 q -10.65374,3.7513 -21.30747,7.5026 -10.65374,3.7514 -21.45752,7.5027 1.80063,3.1511 5.25184,5.1018 3.45121,1.8006 8.10284,1.8006 3.45121,0 6.45226,-1.2004 3.15111,-1.3505 5.55195,-3.6013 1.65058,2.2508 3.1511,4.5016 1.65058,2.2508 3.30116,4.5016 -4.35153,3.7513 -9.45332,5.852 -4.95173,2.1008 -10.65373,2.1008 -6.30221,0 -11.404,-2.2508 -5.10179,-2.4009 -8.70305,-6.4523 -3.45121,-4.0514 -5.10179,-9.3033 -1.65058,-5.4019 -0.75026,-11.554 0.90031,-6.0021 3.90137,-11.404 3.1511,-5.4019 7.80273,-9.3033 4.65163,-4.0514 10.35363,-6.3022 5.85205,-2.4008 12.15426,-2.4008 4.65163,0 8.553,1.9507 4.05142,1.8006 6.90242,5.1018 3.00105,3.3011 4.80169,7.9527 1.95068,4.5016 2.55089,9.9035 z"
                 style="font-style:italic;font-variant:normal;font-weight:bold;font-stretch:normal;font-family:'Josefin Slab';-inkscape-font-specification:'Josefin Slab Bold Italic';letter-spacing:-12.96218777px;fill:#ffcc00"
                 id="path4262" />
              <path
                 d="m 206.36458,2304.4383 11.55405,0 3.15111,-23.2581 q 0.3001,-4.0515 -1.95069,-6.9025 -2.10073,-3.001 -7.80273,-3.3011 -3.90137,0 -7.65269,1.3505 -3.75131,1.3504 -6.75236,3.7513 -3.00106,2.4008 -5.10179,5.702 -2.10074,3.3011 -2.70095,7.2025 l -2.10074,15.4554 9.45332,0 -1.65058,11.8542 -33.31168,0 1.65058,-11.8542 11.404,0 4.50158,-32.5614 -9.90348,0 1.65058,-11.8541 20.85732,0 -0.15006,1.3504 q -0.3001,3.6013 -0.45015,6.6023 0,2.851 -0.30011,6.4523 4.05142,-7.2025 11.25395,-11.404 7.20252,-4.3515 15.30536,-4.3515 8.85311,0 13.35468,4.6516 4.50158,4.6516 3.75132,12.1543 l -4.05142,28.9601 9.30326,0 -1.65058,11.8542 -33.31168,0 1.65058,-11.8542 z"
                 style="font-style:italic;font-variant:normal;font-weight:bold;font-stretch:normal;font-family:'Josefin Slab';-inkscape-font-specification:'Josefin Slab Bold Italic';letter-spacing:-12.96218777px;fill:#ffcc00"
                 id="path4264" />
              <path
                 d="m 261.08787,2223.4099 12.45437,0 -5.10179,36.6129 14.70516,0 -1.65058,12.1542 -14.70516,0 -4.50158,32.2613 11.25395,0 -1.65058,11.8542 -23.70831,0 6.15216,-44.1155 -12.60442,0 1.65057,-12.1542 12.60442,0 5.10179,-36.6129 z"
                 style="font-style:italic;font-variant:normal;font-weight:bold;font-stretch:normal;font-family:'Josefin Slab';-inkscape-font-specification:'Josefin Slab Bold Italic';letter-spacing:-12.96218777px;fill:#ffcc00"
                 id="path4266" />
              <path
                 d="m 309.48788,2270.8265 q -7.65268,0 -13.05458,4.6517 -5.40189,4.5015 -6.75236,11.404 7.50263,-2.5509 14.8552,-5.1018 7.35258,-2.701 14.70516,-5.2519 -1.65058,-2.5509 -4.20147,-4.0514 -2.40084,-1.6506 -5.55195,-1.6506 z m 24.60863,12.7545 q -10.65374,3.7513 -21.30747,7.5026 -10.65374,3.7514 -21.45753,7.5027 1.80064,3.1511 5.25185,5.1018 3.45121,1.8006 8.10284,1.8006 3.45121,0 6.45226,-1.2004 3.1511,-1.3505 5.55195,-3.6013 1.65057,2.2508 3.1511,4.5016 1.65058,2.2508 3.30116,4.5016 -4.35153,3.7513 -9.45332,5.852 -4.95173,2.1008 -10.65373,2.1008 -6.30221,0 -11.404,-2.2508 -5.10179,-2.4009 -8.70305,-6.4523 -3.45121,-4.0514 -5.10179,-9.3033 -1.65058,-5.4019 -0.75026,-11.554 0.90031,-6.0021 3.90136,-11.404 3.15111,-5.4019 7.80274,-9.3033 4.65163,-4.0514 10.35363,-6.3022 5.85205,-2.4008 12.15426,-2.4008 4.65163,0 8.553,1.9507 4.05142,1.8006 6.90242,5.1018 3.00105,3.3011 4.80168,7.9527 1.95069,4.5016 2.5509,9.9035 z"
                 style="font-style:italic;font-variant:normal;font-weight:bold;font-stretch:normal;font-family:'Josefin Slab';-inkscape-font-specification:'Josefin Slab Bold Italic';letter-spacing:-12.96218777px;fill:#ffcc00"
                 id="path4268" />
            </g>
          </g>
        </g>
      </g>
    </g>
  </g>
</svg>
